<mxfile host="app.diagrams.net" modified="2024-07-08T07:35:41.300Z" agent="Mozilla/5.0 (Linux; Android 10; K) AppleWebKit/537.36 (KHTML, like Gecko) Chrome/126.0.0.0 Safari/537.36" version="24.6.4" etag="690Xwgkpi7IoNW3yPjR7" type="github">
  <diagram name="Page-1" id="ZEC1BKXkmVrY2c9UGJkW">
    <mxGraphModel>
      <root>
        <mxCell id="0" />
        <mxCell id="1" parent="0" />
      </root>
    </mxGraphModel>
  </diagram>
</mxfile>
